<svg width="23" height="20" viewBox="0 0 23 20" fill="none" xmlns="http://www.w3.org/2000/svg">
<path d="M5.46558 4.41113H20.5173V17.3867H5.46558V4.41113Z" fill="url(#paint0_linear_11_1100)"/>
<path d="M4.94649 1.29688H21.0362L22.0743 4.67053H3.90845L4.94649 1.29688Z" fill="url(#paint1_linear_11_1100)"/>
<path d="M17.6626 2.07617H19.7387V7.65324e-05H17.6626V2.07617Z" fill="url(#paint2_linear_11_1100)"/>
<path d="M7.02271 6.72656C7.02271 6.45042 7.24656 6.22656 7.52271 6.22656H9.11782C9.39397 6.22656 9.61782 6.45042 9.61782 6.72656V8.32168C9.61782 8.59782 9.39397 8.82168 9.11782 8.82168H7.52271C7.24656 8.82168 7.02271 8.59782 7.02271 8.32168V6.72656Z" fill="#FFFAF5"/>
<path d="M7.02271 11.918C7.02271 11.6418 7.24656 11.418 7.52271 11.418H9.11782C9.39397 11.418 9.61782 11.6418 9.61782 11.918V13.5131C9.61782 13.7892 9.39397 14.0131 9.11782 14.0131H7.52271C7.24656 14.0131 7.02271 13.7892 7.02271 13.5131V11.918Z" fill="#FFFAF5"/>
<path d="M11.6938 6.72656C11.6938 6.45042 11.9177 6.22656 12.1938 6.22656H13.789C14.0651 6.22656 14.289 6.45042 14.289 6.72656V8.32168C14.289 8.59782 14.0651 8.82168 13.789 8.82168H12.1938C11.9177 8.82168 11.6938 8.59782 11.6938 8.32168V6.72656Z" fill="#FFFAF5"/>
<path d="M11.6938 11.918C11.6938 11.6418 11.9177 11.418 12.1938 11.418H13.789C14.0651 11.418 14.289 11.6418 14.289 11.918V13.5131C14.289 13.7892 14.0651 14.0131 13.789 14.0131H12.1938C11.9177 14.0131 11.6938 13.7892 11.6938 13.5131V11.918Z" fill="#FFFAF5"/>
<path d="M16.3652 6.72656C16.3652 6.45042 16.5891 6.22656 16.8652 6.22656H18.4604C18.7365 6.22656 18.9604 6.45042 18.9604 6.72656V8.32168C18.9604 8.59782 18.7365 8.82168 18.4604 8.82168H16.8652C16.5891 8.82168 16.3652 8.59782 16.3652 8.32168V6.72656Z" fill="#FFFAF5"/>
<path d="M16.3652 11.918C16.3652 11.6418 16.5891 11.418 16.8652 11.418H18.4604C18.7365 11.418 18.9604 11.6418 18.9604 11.918V13.5131C18.9604 13.7892 18.7365 14.0131 18.4604 14.0131H16.8652C16.5891 14.0131 16.3652 13.7892 16.3652 13.5131V11.918Z" fill="#FFFAF5"/>
<path fill-rule="evenodd" clip-rule="evenodd" d="M5.4898 13.5909C7.56803 11.4546 12.7641 15.1929 5.4898 19.9998C-1.78448 15.1934 3.41157 11.4546 5.4898 13.5909Z" fill="url(#paint3_linear_11_1100)"/>
<path fill-rule="evenodd" clip-rule="evenodd" d="M6.57293 14.6025C6.67394 14.6019 6.76509 14.6631 6.80291 14.7567L7.67163 16.9078L7.80455 16.725C7.85093 16.6613 7.92502 16.6235 8.00387 16.6235H9.877C10.0131 16.6235 10.1235 16.7339 10.1235 16.87C10.1235 17.0061 10.0131 17.1165 9.877 17.1165H8.12938L7.80885 17.5572C7.75617 17.6296 7.66832 17.6678 7.57942 17.6568C7.49051 17.6459 7.41454 17.5876 7.381 17.5045L6.57831 15.5169L6.0153 16.9596C5.98746 17.0309 5.92805 17.0853 5.85452 17.1067C5.78099 17.128 5.7017 17.114 5.63995 17.0688L5.12822 16.6935L4.32635 18.1706C4.28123 18.2537 4.19251 18.3037 4.09804 18.2992C4.00356 18.2947 3.91999 18.2366 3.88296 18.1495L3.10588 16.3234L2.75282 17.0295C2.71107 17.113 2.62573 17.1658 2.53238 17.1658H1.05359C0.917475 17.1658 0.807129 17.0554 0.807129 16.9193C0.807129 16.7832 0.917475 16.6728 1.05359 16.6728H2.38005L2.90345 15.6261C2.94641 15.5401 3.03541 15.487 3.13144 15.4899C3.22748 15.4929 3.31305 15.5514 3.35067 15.6398L4.13666 17.4868L4.8297 16.2102C4.86366 16.1477 4.92299 16.1028 4.99244 16.0873C5.06188 16.0717 5.13467 16.0869 5.19206 16.129L5.67273 16.4815L6.34478 14.7594C6.3815 14.6653 6.47193 14.6031 6.57293 14.6025Z" fill="white"/>
<defs>
<linearGradient id="paint0_linear_11_1100" x1="12.9914" y1="4.41113" x2="12.9914" y2="17.3867" gradientUnits="userSpaceOnUse">
<stop stop-color="#FFAD97"/>
<stop offset="1" stop-color="#FF5B2E"/>
</linearGradient>
<linearGradient id="paint1_linear_11_1100" x1="12.9914" y1="1.29687" x2="12.9914" y2="4.67053" gradientUnits="userSpaceOnUse">
<stop stop-color="#FFAD97"/>
<stop offset="1" stop-color="#FF5B2E"/>
</linearGradient>
<linearGradient id="paint2_linear_11_1100" x1="18.7006" y1="2.07617" x2="18.7006" y2="7.65324e-05" gradientUnits="userSpaceOnUse">
<stop stop-color="#FFAD97"/>
<stop offset="1" stop-color="#FF5B2E"/>
</linearGradient>
<linearGradient id="paint3_linear_11_1100" x1="5.4898" y1="12.9756" x2="5.4898" y2="19.9998" gradientUnits="userSpaceOnUse">
<stop stop-color="#FF9071"/>
<stop offset="1" stop-color="#FF5B2E"/>
</linearGradient>
</defs>
</svg>
